<?xml version="1.0" standalone="no"?><!DOCTYPE svg PUBLIC "-//W3C//DTD SVG 1.1//EN" "http://www.w3.org/Graphics/SVG/1.1/DTD/svg11.dtd"><svg t="1781071001663" class="icon" viewBox="0 0 1024 1024" version="1.1" xmlns="http://www.w3.org/2000/svg" p-id="9363" xmlns:xlink="http://www.w3.org/1999/xlink" width="200" height="200"><path d="M905.492 282.56c14.848-14.848 14.848-38.96 0-53.804l-110.248-110.248c-14.844-14.848-38.956-14.848-53.804 0L171.348 688.604a29.152 29.152 0 0 0-7.504 12.9l-55.956 203.464a9.064 9.064 0 0 0 11.144 11.144l203.464-55.956a29.152 29.152 0 0 0 12.9-7.504L905.492 282.56z" fill="#FF8F4D" p-id="9364"></path><path d="M628.336 457.888a22.004 22.004 0 0 0 0-31.112l-31.112-31.112a22.004 22.004 0 0 0-31.112 0l-353.556 353.552a22.012 22.012 0 0 0 0 31.112l31.116 31.116a22.012 22.012 0 0 0 31.112 0l353.552-353.556z" fill="#FFAA5E" p-id="9365"></path><path d="M163.82 697.652l162.528 162.528a29.2 29.2 0 0 1-6.828 2.776l-200.756 53.368a9.072 9.072 0 0 1-11.088-11.088l53.368-200.756a29.2 29.2 0 0 1 2.776-6.828z" fill="#FFCF89" p-id="9366"></path><path d="M179.636 900.14l-60.872 16.184a9.072 9.072 0 0 1-11.088-11.088l16.184-60.872 55.776 55.776z" fill="#494949" p-id="9367"></path><path d="M905.492 228.756c14.848 14.844 14.848 38.956 0 53.804l-74.924 74.92-164.048-164.048 74.92-74.924c14.848-14.848 38.96-14.848 53.804 0l110.248 110.248z" fill="#FF6178" p-id="9368"></path><path d="M827.74 385.764a22.004 22.004 0 0 0 0-31.112l-158.392-158.392a22.004 22.004 0 0 0-31.112 0 22.012 22.012 0 0 0 0 31.112l158.392 158.392a22.012 22.012 0 0 0 31.112 0z" fill="#A9B9EB" p-id="9369"></path><path d="M707.532 262.728a20.012 20.012 0 0 0 0-28.284l-39.596-39.6a20.004 20.004 0 0 0-28.284 28.284l39.596 39.6a20.012 20.012 0 0 0 28.284 0z" fill="#BBD8F4" p-id="9370"></path><path d="M796.628 416.876a22.012 22.012 0 0 0 0-31.112l-158.392-158.392a22.012 22.012 0 0 0-31.112 0 22.004 22.004 0 0 0 0 31.112l158.392 158.392a22.004 22.004 0 0 0 31.112 0z" fill="#A9B9EB" p-id="9371"></path><path d="M676.42 293.84a20.012 20.012 0 0 0 0-28.284l-39.596-39.6a20.016 20.016 0 0 0-28.288 0 20.012 20.012 0 0 0 0 28.284l39.6 39.6a20.012 20.012 0 0 0 28.284 0z" fill="#BBD8F4" p-id="9372"></path><path d="M765.516 447.988a22.012 22.012 0 0 0 0-31.112l-158.392-158.392a22.012 22.012 0 0 0-31.112 0 22.004 22.004 0 0 0 0 31.112l158.392 158.392a22.004 22.004 0 0 0 31.112 0z" fill="#A9B9EB" p-id="9373"></path><path d="M645.308 324.952a20.012 20.012 0 0 0 0-28.284l-39.6-39.596a20.004 20.004 0 0 0-28.284 28.284l39.6 39.596a20.012 20.012 0 0 0 28.284 0z" fill="#BBD8F4" p-id="9374"></path></svg>